<svg xmlns="http://www.w3.org/2000/svg" viewBox="0 0 1400 600" fill="none" role="img" aria-label="Programmer working at night with glowing laptop screen">
  <defs>
    <linearGradient id="bg" x1="0" y1="0" x2="1400" y2="600" gradientUnits="userSpaceOnUse">
      <stop stop-color="#0D0F18"/>
      <stop offset="1" stop-color="#12162A"/>
    </linearGradient>
    <radialGradient id="screenGlow" cx="700" cy="260" r="340" gradientUnits="userSpaceOnUse">
      <stop stop-color="#4D9FFF" stop-opacity="0.22"/>
      <stop offset="1" stop-color="#4D9FFF" stop-opacity="0"/>
    </radialGradient>
    <radialGradient id="lampGlow" cx="310" cy="200" r="260" gradientUnits="userSpaceOnUse">
      <stop stop-color="#FFB042" stop-opacity="0.28"/>
      <stop offset="1" stop-color="#FFB042" stop-opacity="0"/>
    </radialGradient>
    <linearGradient id="lid" x1="480" y1="90" x2="480" y2="340" gradientUnits="userSpaceOnUse">
      <stop stop-color="#2A2D3A"/>
      <stop offset="1" stop-color="#1E2030"/>
    </linearGradient>
    <linearGradient id="editorBg" x1="0" y1="104" x2="0" y2="320" gradientUnits="userSpaceOnUse">
      <stop stop-color="#1E1E2E"/>
      <stop offset="1" stop-color="#11111B"/>
    </linearGradient>
    <linearGradient id="base" x1="0" y1="344" x2="0" y2="408" gradientUnits="userSpaceOnUse">
      <stop stop-color="#252838"/>
      <stop offset="1" stop-color="#1A1C28"/>
    </linearGradient>
    <linearGradient id="desk" x1="0" y1="412" x2="0" y2="510" gradientUnits="userSpaceOnUse">
      <stop stop-color="#1C1E2C"/>
      <stop offset="1" stop-color="#14161F"/>
    </linearGradient>
    <linearGradient id="lampArm" x1="308" y1="100" x2="320" y2="320" gradientUnits="userSpaceOnUse">
      <stop stop-color="#3A3C48"/>
      <stop offset="1" stop-color="#2E3040"/>
    </linearGradient>
  </defs>

  <!-- Background -->
  <rect width="1400" height="600" fill="url(#bg)"/>

  <!-- Ambient glows -->
  <rect width="1400" height="600" fill="url(#screenGlow)"/>
  <rect width="1400" height="600" fill="url(#lampGlow)"/>

  <!-- Stars / ambient particles -->
  <circle cx="80" cy="50" r="1.5" fill="#8899CC" opacity="0.5"/>
  <circle cx="180" cy="30" r="1" fill="#8899CC" opacity="0.4"/>
  <circle cx="1320" cy="44" r="1.5" fill="#8899CC" opacity="0.5"/>
  <circle cx="1240" cy="72" r="1" fill="#8899CC" opacity="0.4"/>
  <circle cx="1100" cy="28" r="1.5" fill="#8899CC" opacity="0.4"/>
  <circle cx="60" cy="180" r="1" fill="#6677AA" opacity="0.35"/>
  <circle cx="1360" cy="120" r="1" fill="#6677AA" opacity="0.35"/>

  <!-- Desk surface -->
  <rect x="0" y="412" width="1400" height="188" fill="url(#desk)"/>
  <line x1="0" y1="412" x2="1400" y2="412" stroke="#2A2E40" stroke-width="2"/>
  <!-- Desk surface highlight -->
  <rect x="0" y="412" width="1400" height="3" fill="#323548" fill-opacity="0.5"/>

  <!-- ── Desk lamp (left side) ── -->
  <!-- Base -->
  <rect x="246" y="396" width="80" height="18" rx="9" fill="#2E3040"/>
  <!-- Pole -->
  <rect x="280" y="280" width="12" height="120" rx="6" fill="url(#lampArm)"/>
  <!-- Arm joint -->
  <circle cx="286" cy="278" r="9" fill="#3A3C4E"/>
  <!-- Arm -->
  <rect x="278" y="188" width="14" height="96" rx="7" fill="url(#lampArm)" transform="rotate(-18 285 236)"/>
  <!-- Lamp head (cone) -->
  <path d="M240 158 L330 158 L316 208 L254 208 Z" fill="#38394A"/>
  <path d="M254 208 L316 208 L310 216 L260 216 Z" fill="#2E2F3E"/>
  <!-- Bulb glow -->
  <ellipse cx="285" cy="212" rx="28" ry="8" fill="#FFD06A" fill-opacity="0.9"/>
  <ellipse cx="285" cy="218" rx="36" ry="14" fill="#FFB042" fill-opacity="0.35"/>
  <!-- Lamp warm pool on desk -->
  <ellipse cx="285" cy="416" rx="110" ry="18" fill="#FFA030" fill-opacity="0.1"/>

  <!-- ── Books stack (far left) ── -->
  <rect x="92" y="358" width="92" height="16" rx="4" fill="#4A3060"/>
  <rect x="88" y="342" width="80" height="18" rx="4" fill="#2D5A8A"/>
  <rect x="94" y="326" width="72" height="18" rx="4" fill="#5A3040"/>
  <!-- Book spines detail -->
  <rect x="106" y="342" width="4" height="18" rx="2" fill="#245078" fill-opacity="0.6"/>
  <rect x="116" y="342" width="3" height="18" rx="1.5" fill="#245078" fill-opacity="0.5"/>

  <!-- ── Laptop ── -->
  <!-- Screen lid -->
  <rect x="480" y="90" width="440" height="254" rx="16" fill="url(#lid)"/>
  <!-- Screen glass -->
  <rect x="494" y="104" width="412" height="228" rx="9" fill="url(#editorBg)"/>

  <!-- Editor sidebar -->
  <rect x="494" y="104" width="52" height="228" fill="#11111B"/>
  <rect x="494" y="104" width="3" height="228" fill="#191926"/>
  <!-- Sidebar icons -->
  <rect x="503" y="120" width="34" height="28" rx="6" fill="#1E1E2E"/>
  <rect x="507" y="126" width="26" height="16" rx="3" fill="#313244"/>
  <rect x="503" y="156" width="34" height="28" rx="6" fill="#1E1E2E"/>
  <rect x="507" y="162" width="26" height="16" rx="3" fill="#313244"/>
  <rect x="503" y="192" width="34" height="28" rx="6" fill="#1E1E2E"/>
  <rect x="507" y="198" width="26" height="16" rx="3" fill="#313244"/>
  <!-- Sidebar active indicator -->
  <rect x="494" y="120" width="3" height="28" rx="1.5" fill="#CBA6F7"/>

  <!-- Tab bar -->
  <rect x="546" y="104" width="360" height="20" fill="#181825"/>
  <!-- Active tab -->
  <rect x="550" y="106" width="100" height="16" rx="4" fill="#1E1E2E"/>
  <rect x="555" y="111" width="58" height="5" rx="2.5" fill="#CDD6F4" fill-opacity="0.6"/>
  <circle cx="619" cy="113.5" r="3" fill="#A6E3A1" fill-opacity="0.9"/>
  <!-- Inactive tabs -->
  <rect x="656" y="107" width="90" height="14" rx="4" fill="#11111B"/>
  <rect x="661" y="112" width="52" height="4" rx="2" fill="#585B70"/>
  <rect x="752" y="107" width="74" height="14" rx="4" fill="#11111B"/>
  <rect x="757" y="112" width="40" height="4" rx="2" fill="#585B70"/>

  <!-- Line numbers -->
  <rect x="546" y="124" width="20" height="196" fill="#181825"/>
  <rect x="549" y="130" width="12" height="5" rx="2.5" fill="#585B70"/>
  <rect x="549" y="144" width="12" height="5" rx="2.5" fill="#45475A"/>
  <rect x="549" y="158" width="12" height="5" rx="2.5" fill="#45475A"/>
  <rect x="549" y="172" width="12" height="5" rx="2.5" fill="#45475A"/>
  <rect x="549" y="186" width="12" height="5" rx="2.5" fill="#45475A"/>
  <rect x="549" y="200" width="12" height="5" rx="2.5" fill="#45475A"/>
  <rect x="549" y="214" width="12" height="5" rx="2.5" fill="#45475A"/>
  <rect x="549" y="228" width="12" height="5" rx="2.5" fill="#45475A"/>
  <rect x="549" y="242" width="12" height="5" rx="2.5" fill="#45475A"/>
  <rect x="549" y="256" width="12" height="5" rx="2.5" fill="#45475A"/>
  <rect x="549" y="270" width="12" height="5" rx="2.5" fill="#45475A"/>
  <rect x="549" y="284" width="12" height="5" rx="2.5" fill="#45475A"/>
  <rect x="549" y="298" width="12" height="5" rx="2.5" fill="#45475A"/>
  <rect x="549" y="312" width="12" height="5" rx="2.5" fill="#45475A"/>

  <!-- Code lines (dark editor, same Catppuccin Mocha) -->
  <!-- Line 1 -->
  <rect x="572" y="128" width="38" height="7" rx="3.5" fill="#CBA6F7"/>
  <rect x="614" y="128" width="44" height="7" rx="3.5" fill="#CDD6F4"/>
  <rect x="662" y="128" width="30" height="7" rx="3.5" fill="#89B4FA"/>
  <rect x="696" y="128" width="38" height="7" rx="3.5" fill="#FAB387"/>
  <rect x="738" y="128" width="8" height="7" rx="3.5" fill="#CDD6F4"/>
  <rect x="750" y="128" width="8" height="7" rx="3.5" fill="#CDD6F4"/>
  <!-- Line 2 -->
  <rect x="584" y="142" width="28" height="7" rx="3.5" fill="#CBA6F7"/>
  <rect x="616" y="142" width="30" height="7" rx="3.5" fill="#89B4FA"/>
  <rect x="650" y="142" width="8" height="7" rx="3.5" fill="#CDD6F4"/>
  <rect x="662" y="142" width="32" height="7" rx="3.5" fill="#89B4FA"/>
  <rect x="698" y="142" width="36" height="7" rx="3.5" fill="#F38BA8"/>
  <rect x="738" y="142" width="46" height="7" rx="3.5" fill="#A6E3A1"/>
  <!-- Line 3 -->
  <rect x="596" y="156" width="78" height="7" rx="3.5" fill="#A6E3A1"/>
  <rect x="678" y="156" width="6" height="7" rx="3.5" fill="#CDD6F4"/>
  <!-- Line 4 -->
  <rect x="584" y="170" width="8" height="7" rx="3.5" fill="#CDD6F4"/>
  <!-- Line 5 empty -->
  <!-- Line 6 -->
  <rect x="584" y="198" width="14" height="7" rx="3.5" fill="#CBA6F7"/>
  <rect x="602" y="198" width="8" height="7" rx="3.5" fill="#CDD6F4"/>
  <rect x="614" y="198" width="30" height="7" rx="3.5" fill="#CDD6F4"/>
  <rect x="648" y="198" width="8" height="7" rx="3.5" fill="#CDD6F4"/>
  <rect x="660" y="198" width="8" height="7" rx="3.5" fill="#CDD6F4"/>
  <rect x="672" y="198" width="36" height="7" rx="3.5" fill="#F38BA8"/>
  <!-- Line 7 -->
  <rect x="584" y="212" width="36" height="7" rx="3.5" fill="#CBA6F7"/>
  <rect x="624" y="212" width="8" height="7" rx="3.5" fill="#CDD6F4"/>
  <!-- Line 8 -->
  <rect x="596" y="226" width="50" height="7" rx="3.5" fill="#89B4FA"/>
  <rect x="650" y="226" width="6" height="7" rx="3.5" fill="#CDD6F4"/>
  <rect x="660" y="226" width="26" height="7" rx="3.5" fill="#CDD6F4"/>
  <rect x="690" y="226" width="6" height="7" rx="3.5" fill="#CDD6F4"/>
  <rect x="700" y="226" width="34" height="7" rx="3.5" fill="#FAB387"/>
  <!-- Line 9 -->
  <rect x="596" y="240" width="54" height="7" rx="3.5" fill="#89B4FA"/>
  <rect x="654" y="240" width="6" height="7" rx="3.5" fill="#CDD6F4"/>
  <rect x="664" y="240" width="26" height="7" rx="3.5" fill="#CDD6F4"/>
  <rect x="694" y="240" width="6" height="7" rx="3.5" fill="#CDD6F4"/>
  <rect x="704" y="240" width="52" height="7" rx="3.5" fill="#FAB387"/>
  <!-- Line 10 -->
  <rect x="584" y="254" width="8" height="7" rx="3.5" fill="#CDD6F4"/>
  <!-- Line 11 -->
  <rect x="572" y="268" width="8" height="7" rx="3.5" fill="#CDD6F4"/>
  <!-- Line 12 empty -->
  <!-- Line 13: comment -->
  <rect x="572" y="296" width="186" height="7" rx="3.5" fill="#6C7086"/>
  <!-- Line 14 -->
  <rect x="572" y="310" width="36" height="7" rx="3.5" fill="#CBA6F7"/>
  <rect x="612" y="310" width="16" height="7" rx="3.5" fill="#CDD6F4"/>
  <rect x="632" y="310" width="44" height="7" rx="3.5" fill="#89B4FA"/>
  <rect x="680" y="310" width="6" height="7" rx="3.5" fill="#CDD6F4"/>
  <rect x="690" y="310" width="78" height="7" rx="3.5" fill="#FAB387"/>
  <!-- Cursor -->
  <rect x="572" y="322" width="10" height="13" rx="1.5" fill="#CDD6F4" fill-opacity="0.85"/>

  <!-- Status bar -->
  <rect x="546" y="304" width="360" height="20" fill="#313244"/>
  <rect x="552" y="309" width="48" height="5" rx="2.5" fill="#89B4FA" fill-opacity="0.7"/>
  <rect x="604" y="309" width="30" height="5" rx="2.5" fill="#A6E3A1" fill-opacity="0.6"/>
  <rect x="808" y="309" width="54" height="5" rx="2.5" fill="#CBA6F7" fill-opacity="0.6"/>

  <!-- Laptop hinge -->
  <rect x="480" y="342" width="440" height="6" rx="3" fill="#1C1E28"/>
  <!-- Laptop base -->
  <rect x="462" y="348" width="476" height="62" rx="14" fill="url(#base)"/>
  <!-- Keyboard deck -->
  <rect x="478" y="358" width="444" height="46" rx="8" fill="#222436"/>
  <!-- Keyboard rows (night-mode appearance) -->
  <rect x="488" y="364" width="22" height="8" rx="3" fill="#2E3048"/>
  <rect x="514" y="364" width="22" height="8" rx="3" fill="#2E3048"/>
  <rect x="540" y="364" width="22" height="8" rx="3" fill="#2E3048"/>
  <rect x="566" y="364" width="22" height="8" rx="3" fill="#2E3048"/>
  <rect x="592" y="364" width="22" height="8" rx="3" fill="#2E3048"/>
  <rect x="618" y="364" width="22" height="8" rx="3" fill="#2E3048"/>
  <rect x="644" y="364" width="22" height="8" rx="3" fill="#2E3048"/>
  <rect x="670" y="364" width="22" height="8" rx="3" fill="#2E3048"/>
  <rect x="696" y="364" width="22" height="8" rx="3" fill="#2E3048"/>
  <rect x="722" y="364" width="22" height="8" rx="3" fill="#2E3048"/>
  <rect x="748" y="364" width="22" height="8" rx="3" fill="#2E3048"/>
  <rect x="774" y="364" width="22" height="8" rx="3" fill="#2E3048"/>
  <rect x="800" y="364" width="36" height="8" rx="3" fill="#2E3048"/>
  <!-- Row 2 -->
  <rect x="488" y="376" width="30" height="8" rx="3" fill="#2E3048"/>
  <rect x="522" y="376" width="22" height="8" rx="3" fill="#2E3048"/>
  <rect x="548" y="376" width="22" height="8" rx="3" fill="#2E3048"/>
  <rect x="574" y="376" width="22" height="8" rx="3" fill="#2E3048"/>
  <rect x="600" y="376" width="22" height="8" rx="3" fill="#2E3048"/>
  <rect x="626" y="376" width="22" height="8" rx="3" fill="#2E3048"/>
  <rect x="652" y="376" width="22" height="8" rx="3" fill="#2E3048"/>
  <rect x="678" y="376" width="22" height="8" rx="3" fill="#2E3048"/>
  <rect x="704" y="376" width="22" height="8" rx="3" fill="#2E3048"/>
  <rect x="730" y="376" width="22" height="8" rx="3" fill="#2E3048"/>
  <rect x="756" y="376" width="22" height="8" rx="3" fill="#2E3048"/>
  <rect x="782" y="376" width="54" height="8" rx="3" fill="#2E3048"/>
  <!-- Row 3 -->
  <rect x="488" y="388" width="36" height="8" rx="3" fill="#2E3048"/>
  <rect x="528" y="388" width="22" height="8" rx="3" fill="#2E3048"/>
  <rect x="554" y="388" width="22" height="8" rx="3" fill="#2E3048"/>
  <rect x="580" y="388" width="22" height="8" rx="3" fill="#2E3048"/>
  <rect x="606" y="388" width="22" height="8" rx="3" fill="#2E3048"/>
  <rect x="632" y="388" width="22" height="8" rx="3" fill="#2E3048"/>
  <rect x="658" y="388" width="22" height="8" rx="3" fill="#2E3048"/>
  <rect x="684" y="388" width="22" height="8" rx="3" fill="#2E3048"/>
  <rect x="710" y="388" width="22" height="8" rx="3" fill="#2E3048"/>
  <rect x="736" y="388" width="22" height="8" rx="3" fill="#2E3048"/>
  <rect x="762" y="388" width="74" height="8" rx="3" fill="#2E3048"/>
  <!-- Spacebar -->
  <rect x="560" y="398" width="280" height="8" rx="4" fill="#282A3C"/>
  <!-- Rubber feet -->
  <rect x="472" y="406" width="14" height="5" rx="2.5" fill="#181A24"/>
  <rect x="914" y="406" width="14" height="5" rx="2.5" fill="#181A24"/>

  <!-- Screen glow reflected on desk below laptop -->
  <ellipse cx="700" cy="415" rx="220" ry="12" fill="#4D9FFF" fill-opacity="0.07"/>

  <!-- ── Coffee mug (right of laptop) ── -->
  <rect x="1004" y="356" width="58" height="58" rx="8" fill="#2A3048"/>
  <rect x="1010" y="362" width="46" height="14" rx="5" fill="#3D2010"/>
  <path d="M1062 368 Q1084 368 1084 382 Q1084 396 1062 396" stroke="#222438" stroke-width="5" fill="none" stroke-linecap="round"/>
  <!-- Steam (faint for dark bg) -->
  <path d="M1022 348 Q1026 338 1022 328" stroke="#3A4560" stroke-width="2.5" fill="none" stroke-linecap="round" opacity="0.6"/>
  <path d="M1034 344 Q1038 334 1034 324" stroke="#3A4560" stroke-width="2.5" fill="none" stroke-linecap="round" opacity="0.6"/>
  <path d="M1046 348 Q1050 338 1046 328" stroke="#3A4560" stroke-width="2.5" fill="none" stroke-linecap="round" opacity="0.5"/>

  <!-- ── Potted plant (far right) ── -->
  <!-- Pot -->
  <rect x="1210" y="372" width="74" height="44" rx="8" fill="#2A1F14"/>
  <rect x="1206" y="368" width="82" height="12" rx="6" fill="#3A2A1A"/>
  <!-- Soil -->
  <rect x="1214" y="376" width="66" height="10" rx="5" fill="#1E1610"/>
  <!-- Leaves -->
  <path d="M1247 368 Q1230 340 1210 320 Q1234 344 1244 366" fill="#1A5C32"/>
  <path d="M1247 368 Q1264 340 1284 320 Q1260 344 1250 366" fill="#1E6838"/>
  <path d="M1247 366 Q1240 336 1247 310 Q1254 336 1247 366" fill="#1A5C32"/>
  <path d="M1244 362 Q1218 344 1206 318 Q1228 342 1242 360" fill="#154D28"/>
  <path d="M1250 362 Q1276 344 1288 318 Q1266 342 1252 360" fill="#226638"/>

  <!-- Subtle grid lines on back wall (very faint) -->
  <line x1="0" y1="100" x2="1400" y2="100" stroke="#1E2030" stroke-width="1" opacity="0.5"/>
  <line x1="0" y1="200" x2="1400" y2="200" stroke="#1E2030" stroke-width="1" opacity="0.4"/>
  <line x1="0" y1="300" x2="1400" y2="300" stroke="#1E2030" stroke-width="1" opacity="0.3"/>
  <line x1="200" y1="0" x2="200" y2="412" stroke="#1E2030" stroke-width="1" opacity="0.3"/>
  <line x1="400" y1="0" x2="400" y2="412" stroke="#1E2030" stroke-width="1" opacity="0.25"/>
  <line x1="1000" y1="0" x2="1000" y2="412" stroke="#1E2030" stroke-width="1" opacity="0.25"/>
  <line x1="1200" y1="0" x2="1200" y2="412" stroke="#1E2030" stroke-width="1" opacity="0.3"/>
</svg>
